<svg width="32" height="32" viewBox="0 0 32 32" fill="none" xmlns="http://www.w3.org/2000/svg">
<path d="M24.808 2.954C24.1985 2.34457 23.3719 2.0022 22.51 2.0022C21.6481 2.0022 20.8215 2.34457 20.212 2.954L16.999 6.167C16.9774 5.31969 16.6255 4.51435 16.0186 3.92273C15.4117 3.3311 14.5976 2.99999 13.75 3H6.25C5.38805 3 4.5614 3.34241 3.9519 3.95191C3.34241 4.5614 3 5.38805 3 6.25V25.75C3 26.612 3.34241 27.4386 3.9519 28.0481C4.5614 28.6576 5.38805 29 6.25 29H25.75C26.612 29 27.4386 28.6576 28.0481 28.0481C28.6576 27.4386 29 26.612 29 25.75V18.25C29.0001 17.4039 28.6702 16.5912 28.0805 15.9845C27.4908 15.3778 26.6877 15.025 25.842 15.001L29.051 11.793C29.6604 11.1835 30.0028 10.3569 30.0028 9.495C30.0028 8.6331 29.6604 7.80649 29.051 7.197L24.808 2.954ZM19.176 15H17V12.824L19.176 15ZM21.626 4.368C21.7421 4.25189 21.8799 4.15979 22.0316 4.09695C22.1832 4.03411 22.3458 4.00177 22.51 4.00177C22.6742 4.00177 22.8368 4.03411 22.9884 4.09695C23.1401 4.15979 23.2779 4.25189 23.394 4.368L27.636 8.611C27.7521 8.72708 27.8442 8.86489 27.907 9.01657C27.9699 9.16825 28.0022 9.33082 28.0022 9.495C28.0022 9.65918 27.9699 9.82175 27.907 9.97343C27.8442 10.1251 27.7521 10.2629 27.636 10.379L23.394 14.621C23.2779 14.7371 23.1401 14.8292 22.9884 14.8921C22.8368 14.9549 22.6742 14.9872 22.51 14.9872C22.3458 14.9872 22.1832 14.9549 22.0316 14.8921C21.8799 14.8292 21.7421 14.7371 21.626 14.621L17.383 10.379C17.2669 10.2629 17.1748 10.1251 17.1119 9.97343C17.0491 9.82175 17.0168 9.65918 17.0168 9.495C17.0168 9.33082 17.0491 9.16825 17.1119 9.01657C17.1748 8.86489 17.2669 8.72708 17.383 8.611L21.626 4.368ZM15 6.25V15H5V6.25C5 5.56 5.56 5 6.25 5H13.75C14.44 5 15 5.56 15 6.25ZM5 25.75V17H15V27H6.25C5.56 27 5 26.44 5 25.75ZM17 17H25.75C26.44 17 27 17.56 27 18.25V25.75C27 26.44 26.44 27 25.75 27H17V17Z" fill="#545454"/>
</svg>
