<svg width="54" height="48" viewBox="0 0 54 48" fill="none" xmlns="http://www.w3.org/2000/svg">
<path fill-rule="evenodd" clip-rule="evenodd" d="M53.3427 24.005C53.3427 28.6752 51.7638 32.5132 50.2515 35.1216C48.2058 38.6529 44.3572 40.0078 40.9219 40.0078H36.3611C35.6863 41.0667 35.0275 42.0535 34.4194 42.9283L33.3552 44.4352L33.1632 44.702C32.5978 45.4781 32.0243 46.2516 31.4242 47.0037C30.5174 48.1399 28.8104 48.3373 27.6716 47.4251C27.1197 46.9832 26.7659 46.3402 26.6879 45.6376C26.6099 44.9349 26.814 44.23 27.2555 43.6778C28.1952 42.4844 29.0954 41.2604 29.9546 40.0078H11.7728C8.65045 40.0078 5.65601 38.7675 3.4482 36.5597C1.24038 34.3518 4.57844e-05 31.3574 4.57844e-05 28.2351L4.57844e-05 19.7749C4.57844e-05 16.6526 1.24038 13.6582 3.4482 11.4503C5.65601 9.24253 8.65045 8.00219 11.7728 8.00219L29.9546 8.00219C29.0905 6.75664 28.2023 5.52176 27.2555 4.33488C26.8134 3.78243 26.6089 3.07698 26.6869 2.37372C26.7649 1.67046 27.1191 1.027 27.6716 0.584893C28.224 0.142788 28.9295 -0.0617479 29.6327 0.0162809C30.336 0.0943097 30.9795 0.448512 31.4216 1.00097C32.019 1.75843 32.5951 2.52923 33.1632 3.30804L33.9767 4.44424C34.6968 5.46842 35.5183 6.6793 36.3584 8.00219L40.9219 8.00219C44.3598 8.00219 48.2058 9.3571 50.2515 12.8884C51.7638 15.4968 53.3427 19.3375 53.3427 24.005ZM28.2343 34.6735C26.61 33.0493 24.5937 32.0064 22.2519 32.0064H13.3357C11.921 32.0064 10.5642 31.4444 9.56382 30.444C8.56345 29.4437 8.00145 28.0869 8.00145 26.6721V21.3379C8.00145 19.9231 8.56345 18.5663 9.56382 17.566C10.5642 16.5656 11.921 16.0036 13.3357 16.0036H22.2519C24.5937 16.0036 26.61 14.9607 28.2343 13.3365L11.7728 13.3365C10.9273 13.3365 10.09 13.503 9.30888 13.8266C8.52773 14.1501 7.81796 14.6244 7.2201 15.2222C6.62223 15.8201 6.14797 16.5299 5.82441 17.311C5.50085 18.0922 5.33431 18.9294 5.33431 19.7749L5.33431 28.2351C5.33431 29.0806 5.50085 29.9178 5.82441 30.699C6.14797 31.4801 6.62223 32.1899 7.2201 32.7878C7.81796 33.3856 8.52773 33.8599 9.30888 34.1834C10.09 34.507 10.9273 34.6735 11.7728 34.6735H28.2343ZM48.0085 24.005C48.0085 20.5457 46.8349 17.6306 45.6347 15.5635C44.8479 14.1979 43.1463 13.3365 40.9246 13.3365H39.431C39.9244 14.2993 40.3885 15.2808 40.8019 16.2596C41.8527 18.7614 42.6742 21.4819 42.6742 24.005C42.6742 26.5281 41.8527 29.2486 40.7992 31.7504C40.3858 32.7292 39.9217 33.7107 39.431 34.6735H40.9246C43.1436 34.6735 44.8452 33.8121 45.6374 32.4465C46.8349 30.3795 48.0085 27.4643 48.0085 24.005Z" fill="#545454"/>
</svg>
