<svg width="16" height="16" viewBox="0 0 16 16" fill="none" xmlns="http://www.w3.org/2000/svg">
<path d="M8.00001 1.33331C11.682 1.33331 14.6667 4.31798 14.6667 7.99998C14.6667 11.682 11.682 14.6666 8.00001 14.6666C4.31801 14.6666 1.33334 11.682 1.33334 7.99998C1.33334 4.31798 4.31801 1.33331 8.00001 1.33331ZM8.00001 3.99998C7.8232 3.99998 7.65363 4.07022 7.52861 4.19524C7.40358 4.32027 7.33334 4.48984 7.33334 4.66665V7.99998C7.33338 8.17678 7.40364 8.34632 7.52868 8.47131L9.52868 10.4713C9.65441 10.5928 9.82281 10.6599 9.99761 10.6584C10.1724 10.6569 10.3396 10.5868 10.4632 10.4632C10.5868 10.3396 10.6569 10.1724 10.6585 9.99758C10.66 9.82278 10.5928 9.65438 10.4713 9.52865L8.66668 7.72398V4.66665C8.66668 4.48984 8.59644 4.32027 8.47141 4.19524C8.34639 4.07022 8.17682 3.99998 8.00001 3.99998Z" fill="#545454"/>
</svg>
