<svg width="39" height="56" viewBox="0 0 39 56" fill="none" xmlns="http://www.w3.org/2000/svg">
<path d="M36.9291 11.1977C39.7571 17.283 39.1154 24.4463 35.9841 30.268C33.4151 35.0443 29.5814 38.9947 26.4221 43.3673C24.9777 45.3693 23.5194 47.4507 22.5277 49.7303C22.1987 50.4887 21.9141 51.2657 21.6341 52.045C21.3517 52.822 21.1114 53.6153 20.8407 54.397C20.5864 55.1297 20.2901 55.993 19.3777 56H19.3614C18.2741 55.9977 18.0104 54.7633 17.7397 53.9303C17.0771 51.891 16.3841 49.9333 15.3621 48.0387C14.1721 45.836 12.6904 43.799 11.1854 41.8063L36.9291 11.1977ZM11.3044 17.9784L2.06676 28.9613C3.75609 32.5547 6.31575 35.6417 8.76575 38.7147C9.34208 39.438 9.91842 40.166 10.4854 40.8987L22.1147 27.0737L22.0471 27.097C17.9847 28.4993 13.4347 26.418 11.7991 22.4607C11.5753 21.9235 11.4118 21.3632 11.3114 20.79C11.1644 19.7704 11.1317 19.0144 11.3021 17.9947L11.3044 17.9784ZM4.18076 7.3477L4.17376 7.35703C-0.369239 13.111 -1.14857 21.077 1.56743 27.8203L12.7324 14.546L12.5971 14.4294L4.18076 7.3477ZM25.5751 1.01737L16.6197 11.6644C16.6403 11.6556 16.6614 11.6478 16.6827 11.641C20.4161 10.3554 24.6231 11.991 26.5294 15.435C26.9401 16.1794 27.2831 17.0287 27.4091 17.8734C27.5677 18.914 27.6074 19.677 27.4371 20.72L27.4301 20.7573L36.3807 10.115C34.0417 5.84888 30.1965 2.6077 25.5961 1.02437L25.5751 1.01737ZM13.4534 13.692L24.4107 0.665037L24.3011 0.637037C22.6797 0.210844 21.0099 -0.00327484 19.3334 3.78556e-05C16.6188 0.0254636 13.9388 0.611925 11.4617 1.72259C8.98459 2.83325 6.76389 4.44412 4.93909 6.45403L4.90176 6.49603L13.4534 13.692Z" fill="#545454"/>
</svg>
