<svg width="16" height="16" viewBox="0 0 16 16" fill="none" xmlns="http://www.w3.org/2000/svg">
<path d="M5.99999 3.33338C5.82318 3.33338 5.65361 3.40362 5.52859 3.52864C5.40356 3.65367 5.33332 3.82324 5.33332 4.00005C5.33332 4.17686 5.40356 4.34643 5.52859 4.47145C5.65361 4.59648 5.82318 4.66671 5.99999 4.66671C6.1768 4.66671 6.34637 4.59648 6.47139 4.47145C6.59642 4.34643 6.66666 4.17686 6.66666 4.00005C6.66666 3.82324 6.59642 3.65367 6.47139 3.52864C6.34637 3.40362 6.1768 3.33338 5.99999 3.33338ZM4.11332 3.33338C4.25106 2.94302 4.50648 2.605 4.84439 2.36591C5.1823 2.12681 5.58605 1.99841 5.99999 1.99841C6.41393 1.99841 6.81768 2.12681 7.15559 2.36591C7.4935 2.605 7.74892 2.94302 7.88666 3.33338H12.6667C12.8435 3.33338 13.013 3.40362 13.1381 3.52864C13.2631 3.65367 13.3333 3.82324 13.3333 4.00005C13.3333 4.17686 13.2631 4.34643 13.1381 4.47145C13.013 4.59648 12.8435 4.66671 12.6667 4.66671H7.88666C7.74892 5.05707 7.4935 5.39509 7.15559 5.63419C6.81768 5.87328 6.41393 6.00168 5.99999 6.00168C5.58605 6.00168 5.1823 5.87328 4.84439 5.63419C4.50648 5.39509 4.25106 5.05707 4.11332 4.66671H3.33332C3.15651 4.66671 2.98694 4.59648 2.86192 4.47145C2.73689 4.34643 2.66666 4.17686 2.66666 4.00005C2.66666 3.82324 2.73689 3.65367 2.86192 3.52864C2.98694 3.40362 3.15651 3.33338 3.33332 3.33338H4.11332ZM9.99999 7.33338C9.82318 7.33338 9.65361 7.40362 9.52858 7.52864C9.40356 7.65367 9.33332 7.82324 9.33332 8.00005C9.33332 8.17686 9.40356 8.34643 9.52858 8.47145C9.65361 8.59648 9.82318 8.66671 9.99999 8.66671C10.1768 8.66671 10.3464 8.59648 10.4714 8.47145C10.5964 8.34643 10.6667 8.17686 10.6667 8.00005C10.6667 7.82324 10.5964 7.65367 10.4714 7.52864C10.3464 7.40362 10.1768 7.33338 9.99999 7.33338ZM8.11332 7.33338C8.25106 6.94303 8.50648 6.605 8.84439 6.36591C9.1823 6.12681 9.58605 5.99841 9.99999 5.99841C10.4139 5.99841 10.8177 6.12681 11.1556 6.36591C11.4935 6.605 11.7489 6.94303 11.8867 7.33338H12.6667C12.8435 7.33338 13.013 7.40362 13.1381 7.52864C13.2631 7.65367 13.3333 7.82324 13.3333 8.00005C13.3333 8.17686 13.2631 8.34643 13.1381 8.47145C13.013 8.59648 12.8435 8.66671 12.6667 8.66671H11.8867C11.7489 9.05707 11.4935 9.39509 11.1556 9.63419C10.8177 9.87328 10.4139 10.0017 9.99999 10.0017C9.58605 10.0017 9.1823 9.87328 8.84439 9.63419C8.50648 9.39509 8.25106 9.05707 8.11332 8.66671H3.33332C3.15651 8.66671 2.98694 8.59648 2.86192 8.47145C2.73689 8.34643 2.66666 8.17686 2.66666 8.00005C2.66666 7.82324 2.73689 7.65367 2.86192 7.52864C2.98694 7.40362 3.15651 7.33338 3.33332 7.33338H8.11332ZM5.99999 11.3334C5.82318 11.3334 5.65361 11.4036 5.52859 11.5286C5.40356 11.6537 5.33332 11.8232 5.33332 12C5.33332 12.1769 5.40356 12.3464 5.52859 12.4715C5.65361 12.5965 5.82318 12.6667 5.99999 12.6667C6.1768 12.6667 6.34637 12.5965 6.47139 12.4715C6.59642 12.3464 6.66666 12.1769 6.66666 12C6.66666 11.8232 6.59642 11.6537 6.47139 11.5286C6.34637 11.4036 6.1768 11.3334 5.99999 11.3334ZM4.11332 11.3334C4.25106 10.943 4.50648 10.605 4.84439 10.3659C5.1823 10.1268 5.58605 9.99841 5.99999 9.99841C6.41393 9.99841 6.81768 10.1268 7.15559 10.3659C7.4935 10.605 7.74892 10.943 7.88666 11.3334H12.6667C12.8435 11.3334 13.013 11.4036 13.1381 11.5286C13.2631 11.6537 13.3333 11.8232 13.3333 12C13.3333 12.1769 13.2631 12.3464 13.1381 12.4715C13.013 12.5965 12.8435 12.6667 12.6667 12.6667H7.88666C7.74892 13.0571 7.4935 13.3951 7.15559 13.6342C6.81768 13.8733 6.41393 14.0017 5.99999 14.0017C5.58605 14.0017 5.1823 13.8733 4.84439 13.6342C4.50648 13.3951 4.25106 13.0571 4.11332 12.6667H3.33332C3.15651 12.6667 2.98694 12.5965 2.86192 12.4715C2.73689 12.3464 2.66666 12.1769 2.66666 12C2.66666 11.8232 2.73689 11.6537 2.86192 11.5286C2.98694 11.4036 3.15651 11.3334 3.33332 11.3334H4.11332Z" fill="#545454"/>
</svg>
