<svg width="16" height="16" viewBox="0 0 16 16" fill="none" xmlns="http://www.w3.org/2000/svg">
<path fill-rule="evenodd" clip-rule="evenodd" d="M10.5093 2.66669C10.8807 2.6667 11.2447 2.77011 11.5607 2.96533C11.8766 3.16056 12.1319 3.43988 12.298 3.77202L13.222 5.61935C13.3847 5.55269 13.5447 5.48069 13.702 5.40335C13.8603 5.32432 14.0434 5.31138 14.2112 5.3674C14.379 5.42341 14.5176 5.54377 14.5967 5.70202C14.6757 5.86027 14.6886 6.04343 14.6326 6.21121C14.5766 6.37899 14.4563 6.51765 14.298 6.59669C14.1378 6.66802 13.9766 6.73736 13.8147 6.80469L14.4553 8.08669C14.5944 8.36466 14.6668 8.67121 14.6667 8.98202V10.6667C14.6671 10.9481 14.6079 11.2265 14.493 11.4834C14.3781 11.7403 14.2101 11.97 14 12.1574V13C14 13.2652 13.8947 13.5196 13.7071 13.7071C13.5196 13.8947 13.2652 14 13 14C12.7348 14 12.4804 13.8947 12.2929 13.7071C12.1054 13.5196 12 13.2652 12 13V12.6667H4.00001V13C4.00001 13.2652 3.89465 13.5196 3.70712 13.7071C3.51958 13.8947 3.26523 14 3.00001 14C2.73479 14 2.48044 13.8947 2.2929 13.7071C2.10537 13.5196 2.00001 13.2652 2.00001 13V12.1574C1.59068 11.7907 1.33334 11.2587 1.33334 10.6667V8.98135C1.33347 8.67099 1.40582 8.36492 1.54468 8.08735L2.18001 6.81535C2.01934 6.74735 1.86001 6.67535 1.70334 6.59735C1.5459 6.51729 1.42622 6.37857 1.3701 6.21109C1.31398 6.04361 1.32592 5.86078 1.40334 5.70202C1.44245 5.62364 1.49662 5.55373 1.56275 5.4963C1.62889 5.43886 1.7057 5.39502 1.78878 5.36729C1.87187 5.33955 1.95961 5.32846 2.04699 5.33465C2.13436 5.34084 2.21966 5.36418 2.29801 5.40335C2.45534 5.48135 2.61601 5.55269 2.77801 5.61935L3.70201 3.77269C3.86804 3.44042 4.12332 3.16096 4.43924 2.96562C4.75516 2.77027 5.11924 2.66676 5.49068 2.66669H10.5093ZM5.00001 8.66669C4.73479 8.66669 4.48044 8.77204 4.2929 8.95958C4.10537 9.14712 4.00001 9.40147 4.00001 9.66669C4.00001 9.9319 4.10537 10.1863 4.2929 10.3738C4.48044 10.5613 4.73479 10.6667 5.00001 10.6667C5.26523 10.6667 5.51958 10.5613 5.70712 10.3738C5.89465 10.1863 6.00001 9.9319 6.00001 9.66669C6.00001 9.40147 5.89465 9.14712 5.70712 8.95958C5.51958 8.77204 5.26523 8.66669 5.00001 8.66669ZM11 8.66669C10.7348 8.66669 10.4804 8.77204 10.2929 8.95958C10.1054 9.14712 10 9.40147 10 9.66669C10 9.9319 10.1054 10.1863 10.2929 10.3738C10.4804 10.5613 10.7348 10.6667 11 10.6667C11.2652 10.6667 11.5196 10.5613 11.7071 10.3738C11.8947 10.1863 12 9.9319 12 9.66669C12 9.40147 11.8947 9.14712 11.7071 8.95958C11.5196 8.77204 11.2652 8.66669 11 8.66669ZM10.5093 4.00002H5.49068C5.38095 4 5.27291 4.02707 5.17616 4.07882C5.0794 4.13058 4.99691 4.20541 4.93601 4.29669L4.89468 4.36869L4.04801 6.06069C5.08001 6.37002 6.47068 6.66669 8.00001 6.66669C9.42801 6.66669 10.734 6.40802 11.74 6.12202L11.9513 6.06069L11.1053 4.36869C11.0563 4.27056 10.9838 4.18606 10.8942 4.12269C10.8047 4.05931 10.7009 4.019 10.592 4.00535L10.51 4.00002H10.5093Z" fill="#545454"/>
</svg>
