<svg width="45" height="49" viewBox="0 0 45 49" fill="none" xmlns="http://www.w3.org/2000/svg">
<path d="M25.3312 31.4948L28.832 27.9941H5.25109C4.56142 27.9938 3.87845 28.1294 3.24122 28.3932C2.60399 28.657 2.02499 29.0438 1.53732 29.5314C1.04965 30.0191 0.662874 30.5981 0.399091 31.2353C0.135308 31.8726 -0.000306205 32.5555 5.19135e-07 33.2452V34.5918C5.19135e-07 36.6736 0.746822 38.69 2.10043 40.2747C5.35611 44.0881 10.1334 46.1815 16.3297 46.5923C16.3204 46.1652 16.3671 45.7288 16.4791 45.283L17.0159 43.1266C11.4777 42.8465 7.42854 41.1242 4.76098 38.0015C3.94834 37.0512 3.50146 35.8422 3.50072 34.5918V33.2429C3.50134 32.7791 3.68603 32.3344 4.01422 32.0067C4.34241 31.6789 4.78727 31.4948 5.25109 31.4948H25.3312ZM18.6659 0C20.1983 -2.28346e-08 21.7157 0.301829 23.1314 0.888255C24.5472 1.47468 25.8336 2.33422 26.9171 3.41779C28.0007 4.50137 28.8603 5.78776 29.4467 7.20352C30.0331 8.61927 30.3349 10.1367 30.3349 11.6691C30.3349 13.2015 30.0331 14.7189 29.4467 16.1346C28.8603 17.5504 28.0007 18.8368 26.9171 19.9204C25.8336 21.0039 24.5472 21.8635 23.1314 22.4499C21.7157 23.0363 20.1983 23.3382 18.6659 23.3382C15.571 23.3382 12.603 22.1087 10.4146 19.9204C8.2262 17.732 6.99678 14.7639 6.99678 11.6691C6.99678 8.57425 8.2262 5.60617 10.4146 3.41779C12.603 1.22942 15.571 0 18.6659 0ZM18.6659 3.50072C17.5932 3.50072 16.531 3.712 15.54 4.1225C14.5489 4.533 13.6485 5.13468 12.89 5.89318C12.1315 6.65168 11.5298 7.55215 11.1193 8.54318C10.7088 9.53422 10.4975 10.5964 10.4975 11.6691C10.4975 12.7418 10.7088 13.8039 11.1193 14.795C11.5298 15.786 12.1315 16.6865 12.89 17.445C13.6485 18.2035 14.5489 18.8052 15.54 19.2157C16.531 19.6262 17.5932 19.8374 18.6659 19.8374C20.8322 19.8374 22.9099 18.9768 24.4418 17.445C25.9736 15.9131 26.8342 13.8355 26.8342 11.6691C26.8342 9.5027 25.9736 7.42504 24.4418 5.89318C22.9099 4.36132 20.8322 3.50072 18.6659 3.50072ZM35.236 24.8901L21.4594 38.6643C20.6568 39.4673 20.0873 40.4732 19.8118 41.5746L18.7429 45.8478C18.6366 46.273 18.6422 46.7184 18.7593 47.1408C18.8763 47.5631 19.1008 47.9479 19.4108 48.2577C19.7208 48.5674 20.1058 48.7916 20.5282 48.9083C20.9506 49.0251 21.3961 49.0304 21.8212 48.9238L26.0921 47.8572C27.1946 47.5815 28.2014 47.0112 29.0047 46.2072L42.7788 32.433C43.7406 31.425 44.2699 30.0807 44.2535 28.6875C44.2371 27.2944 43.6764 25.9629 42.6913 24.9777C41.7061 23.9925 40.3746 23.4318 38.9814 23.4155C37.5883 23.3991 36.244 23.9284 35.236 24.8901Z" fill="#545454"/>
</svg>
