<svg width="32" height="32" viewBox="0 0 32 32" fill="none" xmlns="http://www.w3.org/2000/svg">
<path d="M24.808 2.954C24.1985 2.34457 23.3719 2.0022 22.51 2.0022C21.6481 2.0022 20.8215 2.34457 20.212 2.954L16.999 6.167C16.9774 5.31969 16.6255 4.51435 16.0186 3.92273C15.4117 3.3311 14.5976 2.99999 13.75 3H6.25C5.38805 3 4.5614 3.34241 3.9519 3.95191C3.34241 4.5614 3 5.38805 3 6.25V25.75C3 26.612 3.34241 27.4386 3.9519 28.0481C4.5614 28.6576 5.38805 29 6.25 29H25.75C26.612 29 27.4386 28.6576 28.0481 28.0481C28.6576 27.4386 29 26.612 29 25.75V18.25C29.0001 17.4039 28.6702 16.5912 28.0805 15.9845C27.4908 15.3778 26.6877 15.025 25.842 15.001L29.051 11.793C29.6604 11.1835 30.0028 10.3569 30.0028 9.495C30.0028 8.6331 29.6604 7.80649 29.051 7.197L24.808 2.954ZM17 12.824L19.176 15H17V12.824ZM15 15H5V6.25C5 5.56 5.56 5 6.25 5H13.75C14.44 5 15 5.56 15 6.25V15ZM5 17H15V27H6.25C5.56 27 5 26.44 5 25.75V17ZM17 27V17H25.75C26.44 17 27 17.56 27 18.25V25.75C27 26.44 26.44 27 25.75 27H17Z" fill="#545454"/>
</svg>
