<svg width="56" height="57" viewBox="0 0 56 57" fill="none" xmlns="http://www.w3.org/2000/svg">
<path fill-rule="evenodd" clip-rule="evenodd" d="M15.052 1.25548C15.5151 1.9017 15.7028 2.70534 15.5738 3.48985C15.4448 4.27436 15.0097 4.97559 14.364 5.43948C11.7774 7.29778 9.66993 9.74471 8.21561 12.5782C6.7613 15.4117 6.00186 18.5505 6 21.7355C6 22.5311 5.68393 23.2942 5.12132 23.8568C4.55871 24.4194 3.79565 24.7355 3 24.7355C2.20435 24.7355 1.44129 24.4194 0.87868 23.8568C0.31607 23.2942 0 22.5311 0 21.7355C0.00144677 17.5977 0.987427 13.5196 2.87648 9.83816C4.76553 6.15673 7.50344 2.97762 10.864 0.563476C11.1841 0.333527 11.5464 0.168911 11.9302 0.0790356C12.3139 -0.0108398 12.7116 -0.024213 13.1006 0.03968C13.4895 0.103573 13.862 0.24348 14.1969 0.451406C14.5317 0.659331 14.8223 0.9352 15.052 1.25548ZM15.272 10.2755C17.7893 7.7581 20.9967 6.04374 24.4883 5.34919C27.98 4.65465 31.5992 5.01111 34.8883 6.3735C38.1774 7.73589 40.9886 10.043 42.9665 13.0031C44.9444 15.9632 46 19.4434 46 23.0035V37.0035C46 38.0643 46.4214 39.0818 47.1716 39.8319C47.9217 40.582 48.9391 41.0035 50 41.0035C50.5304 41.0035 51.0391 41.2142 51.4142 41.5893C51.7893 41.9643 52 42.473 52 43.0035C52 43.5339 51.7893 44.0426 51.4142 44.4177C51.0391 44.7928 50.5304 45.0035 50 45.0035H6C5.46957 45.0035 4.96086 44.7928 4.58579 44.4177C4.21071 44.0426 4 43.5339 4 43.0035C4 42.473 4.21071 41.9643 4.58579 41.5893C4.96086 41.2142 5.46957 41.0035 6 41.0035C7.06087 41.0035 8.07828 40.582 8.82843 39.8319C9.57857 39.0818 10 38.0643 10 37.0035V23.0035C9.99998 20.6397 10.4655 18.299 11.3701 16.1151C12.2747 13.9313 13.6006 11.9469 15.272 10.2755ZM21 53.0035C21 52.2078 21.3161 51.4448 21.8787 50.8822C22.4413 50.3195 23.2044 50.0035 24 50.0035H32C32.7957 50.0035 33.5587 50.3195 34.1213 50.8822C34.6839 51.4448 35 52.2078 35 53.0035C35 53.7991 34.6839 54.5622 34.1213 55.1248C33.5587 55.6874 32.7957 56.0035 32 56.0035H24C23.2044 56.0035 22.4413 55.6874 21.8787 55.1248C21.3161 54.5622 21 53.7991 21 53.0035ZM45.136 0.563476C44.8156 0.333662 44.453 0.169212 44.069 0.0795135C43.6851 -0.0101848 43.2872 -0.0233743 42.8981 0.0406981C42.509 0.104771 42.1364 0.24485 41.8014 0.452939C41.4665 0.661027 41.1758 0.93305 40.946 1.25348C40.7162 1.5739 40.5517 1.93645 40.462 2.32043C40.3723 2.70441 40.3591 3.1023 40.4232 3.49138C40.4873 3.88046 40.6274 4.2531 40.8355 4.58805C41.0436 4.92299 41.3156 5.21366 41.636 5.44348C44.2215 7.30099 46.3283 9.74664 47.7826 12.5787C49.2368 15.4107 49.9969 18.5479 50 21.7315C50 22.5271 50.3161 23.2902 50.8787 23.8528C51.4413 24.4154 52.2043 24.7315 53 24.7315C53.7957 24.7315 54.5587 24.4154 55.1213 23.8528C55.6839 23.2902 56 22.5271 56 21.7315C55.9979 17.5943 55.0116 13.5171 53.1226 9.83638C51.2336 6.1557 48.496 2.97722 45.136 0.563476Z" fill="#545454"/>
</svg>
