<svg width="17" height="16" viewBox="0 0 17 16" fill="none" xmlns="http://www.w3.org/2000/svg">
<path d="M1.66667 6.00004C2.1971 6.00004 2.70581 5.78933 3.08088 5.41425C3.45595 5.03918 3.66667 4.53047 3.66667 4.00004M1.66667 10C2.1971 10 2.70581 10.2108 3.08088 10.5858C3.45595 10.9609 3.66667 11.4696 3.66667 12M15 6.00004C14.4696 6.00004 13.9609 5.78933 13.5858 5.41425C13.2107 5.03918 13 4.53047 13 4.00004M15 10C14.4696 10 13.9609 10.2108 13.5858 10.5858C13.2107 10.9609 13 11.4696 13 12M1 3.33337H15.6667V12.6667H1V3.33337ZM8.33333 10.6667C9.438 10.6667 10.3333 9.47337 10.3333 8.00004C10.3333 6.52671 9.438 5.33337 8.33333 5.33337C7.22867 5.33337 6.33333 6.52671 6.33333 8.00004C6.33333 9.47337 7.22867 10.6667 8.33333 10.6667Z" stroke="#545454" stroke-width="2"/>
</svg>
