<svg width="54" height="48" viewBox="0 0 54 48" fill="none" xmlns="http://www.w3.org/2000/svg">
<path fill-rule="evenodd" clip-rule="evenodd" d="M0 23.995C0 19.3248 1.57894 15.4868 3.09121 12.8784C5.1369 9.3471 8.98558 7.99219 12.4208 7.99219H16.9816C17.6564 6.93334 18.3152 5.9465 18.9233 5.07168L19.9875 3.56475L20.1795 3.29804C20.745 2.5219 21.3184 1.74843 21.9185 0.996303C22.8253 -0.139898 24.5323 -0.337267 25.6712 0.574892C26.223 1.01681 26.5768 1.65976 26.6549 2.36243C26.7329 3.0651 26.5287 3.77001 26.0872 4.32222C25.1475 5.5156 24.2473 6.73959 23.3881 7.99219H41.57C44.6923 7.99219 47.6867 9.23253 49.8945 11.4403C52.1024 13.6482 53.3427 16.6426 53.3427 19.7649V28.2251C53.3427 31.3474 52.1024 34.3418 49.8945 36.5497C47.6867 38.7575 44.6923 39.9978 41.57 39.9978H23.3881C24.2523 41.2434 25.1404 42.4782 26.0872 43.6651C26.5293 44.2176 26.7339 44.923 26.6559 45.6263C26.5778 46.3295 26.2236 46.973 25.6712 47.4151C25.1187 47.8572 24.4133 48.0617 23.71 47.9837C23.0067 47.9057 22.3633 47.5515 21.9212 46.999C21.3237 46.2416 20.7476 45.4708 20.1795 44.692L19.3661 43.5558C18.6459 42.5316 17.8245 41.3207 16.9843 39.9978H12.4208C8.98291 39.9978 5.1369 38.6429 3.09121 35.1116C1.57894 32.5032 0 28.6625 0 23.995ZM25.1084 13.3265C26.7327 14.9507 28.749 15.9936 31.0908 15.9936H40.007C41.4218 15.9936 42.7785 16.5556 43.7789 17.556C44.7793 18.5563 45.3413 19.9131 45.3413 21.3279V26.6621C45.3413 28.0769 44.7793 29.4337 43.7789 30.434C42.7785 31.4344 41.4218 31.9964 40.007 31.9964L31.0908 31.9964C28.749 31.9964 26.7327 33.0393 25.1084 34.6635H41.57C42.4155 34.6635 43.2527 34.497 44.0339 34.1734C44.815 33.8499 45.5248 33.3756 46.1226 32.7778C46.7205 32.1799 47.1948 31.4701 47.5183 30.689C47.8419 29.9078 48.0084 29.0706 48.0084 28.2251V19.7649C48.0084 18.9194 47.8419 18.0822 47.5183 17.301C47.1948 16.5199 46.7205 15.8101 46.1226 15.2122C45.5248 14.6144 44.815 14.1401 44.0339 13.8166C43.2527 13.493 42.4155 13.3265 41.57 13.3265H25.1084ZM5.33427 23.995C5.33427 27.4543 6.50781 30.3694 7.70802 32.4365C8.49482 33.8021 10.1965 34.6635 12.4182 34.6635H13.9118C13.4184 33.7007 12.9543 32.7192 12.5409 31.7404C11.49 29.2386 10.6685 26.5181 10.6685 23.995C10.6685 21.4719 11.49 18.7514 12.5435 16.2496C12.9569 15.2708 13.421 14.2893 13.9118 13.3265H12.4182C10.1991 13.3265 8.49749 14.1879 7.70535 15.5535C6.50781 17.6205 5.33427 20.5357 5.33427 23.995Z" fill="#545454"/>
</svg>
