<svg width="32" height="32" viewBox="0 0 32 32" fill="none" xmlns="http://www.w3.org/2000/svg">
<path d="M26.6667 25.3333V14C26.6667 13.793 26.6185 13.5888 26.5259 13.4037C26.4333 13.2185 26.2989 13.0575 26.1333 12.9333L16.8 5.93329C16.5692 5.7602 16.2885 5.66663 16 5.66663C15.7115 5.66663 15.4308 5.7602 15.2 5.93329L5.86666 12.9333C5.70107 13.0575 5.56666 13.2185 5.47409 13.4037C5.38152 13.5888 5.33333 13.793 5.33333 14V25.3333C5.33333 25.6869 5.4738 26.0261 5.72385 26.2761C5.9739 26.5262 6.31304 26.6666 6.66666 26.6666H12C12.3536 26.6666 12.6928 26.5262 12.9428 26.2761C13.1929 26.0261 13.3333 25.6869 13.3333 25.3333V21.3333C13.3333 20.9797 13.4738 20.6405 13.7239 20.3905C13.9739 20.1404 14.313 20 14.6667 20H17.3333C17.6869 20 18.0261 20.1404 18.2761 20.3905C18.5262 20.6405 18.6667 20.9797 18.6667 21.3333V25.3333C18.6667 25.6869 18.8071 26.0261 19.0572 26.2761C19.3072 26.5262 19.6464 26.6666 20 26.6666H25.3333C25.6869 26.6666 26.0261 26.5262 26.2761 26.2761C26.5262 26.0261 26.6667 25.6869 26.6667 25.3333Z" stroke="#545454" stroke-width="2" stroke-linecap="round" stroke-linejoin="round"/>
</svg>
