<svg width="16" height="16" viewBox="0 0 16 16" fill="none" xmlns="http://www.w3.org/2000/svg">
<path fill-rule="evenodd" clip-rule="evenodd" d="M7.99996 14L8.47196 14.4707C8.41002 14.5328 8.33641 14.5822 8.25536 14.6159C8.1743 14.6495 8.0874 14.6669 7.99963 14.6669C7.91186 14.6669 7.82495 14.6495 7.7439 14.6159C7.66284 14.5822 7.58923 14.5328 7.52729 14.4707L7.52329 14.466L7.51196 14.4547L7.47063 14.4127C7.23562 14.1706 7.00448 13.9248 6.77729 13.6753C6.20689 13.0503 5.66071 12.4036 5.13996 11.7367C4.54529 10.97 3.93729 10.1033 3.47529 9.24733C3.02329 8.408 2.66663 7.49866 2.66663 6.66666C2.66663 3.64066 5.06129 1.33333 7.99996 1.33333C10.9386 1.33333 13.3333 3.64066 13.3333 6.66666C13.3333 7.49866 12.9766 8.408 12.5246 9.24666C12.0626 10.104 11.4553 10.97 10.86 11.7367C10.1315 12.6698 9.35354 13.563 8.52929 14.4127L8.48796 14.4547L8.47663 14.466L8.47263 14.47L7.99996 14ZM7.99996 8.66666C8.53039 8.66666 9.0391 8.45595 9.41417 8.08088C9.78925 7.7058 9.99996 7.19709 9.99996 6.66666C9.99996 6.13623 9.78925 5.62752 9.41417 5.25245C9.0391 4.87738 8.53039 4.66666 7.99996 4.66666C7.46953 4.66666 6.96082 4.87738 6.58575 5.25245C6.21067 5.62752 5.99996 6.13623 5.99996 6.66666C5.99996 7.19709 6.21067 7.7058 6.58575 8.08088C6.96082 8.45595 7.46953 8.66666 7.99996 8.66666Z" fill="white"/>
</svg>
