<svg width="65" height="71" viewBox="0 0 65 71" fill="none" xmlns="http://www.w3.org/2000/svg">
<path d="M50.6064 19.6383C53.6256 19.6125 56.5889 20.4526 59.1453 22.0591C59.7156 22.4241 60.3736 22.629 61.0503 22.6524C61.7271 22.6758 62.3976 22.5168 62.9918 22.1921C63.5861 21.8674 64.082 21.3889 64.4278 20.8067C64.7736 20.2246 64.9566 19.5601 64.9574 18.883V5.28723C64.9574 3.88497 64.4004 2.54014 63.4089 1.5486C62.4173 0.557047 61.0725 0 59.6702 0H5.28723C3.88497 0 2.54014 0.557047 1.5486 1.5486C0.557047 2.54014 0 3.88497 0 5.28723V65.7128C0 67.115 0.557047 68.4599 1.5486 69.4514C2.54014 70.443 3.88497 71 5.28723 71H59.6702C61.0725 71 62.4173 70.443 63.4089 69.4514C64.4004 68.4599 64.9574 67.115 64.9574 65.7128V52.117C64.9566 51.441 64.7744 50.7776 64.4297 50.196C64.085 49.6145 63.5905 49.1361 62.9979 48.8109C62.4053 48.4856 61.7362 48.3254 61.0605 48.3469C60.3848 48.3685 59.7273 48.571 59.1566 48.9334C56.2751 50.7801 53.8278 51.4863 50.697 51.3579H50.6064C46.3996 51.3579 42.3651 49.6868 39.3905 46.7121C36.4158 43.7375 34.7447 39.703 34.7447 35.4962C34.7447 31.2894 36.4158 27.255 39.3905 24.2803C42.3651 21.3057 46.3996 19.6345 50.6064 19.6345V19.6383ZM30.2128 35.5C30.2187 40.899 32.363 46.0759 36.1765 49.8979C39.99 53.7198 45.162 55.8756 50.5611 55.8936C54.017 56.0769 57.4496 55.2319 60.4255 53.4653V65.7128C60.4255 65.9131 60.346 66.1052 60.2043 66.2469C60.0627 66.3885 59.8705 66.4681 59.6702 66.4681H5.28723C5.08691 66.4681 4.89479 66.3885 4.75314 66.2469C4.61149 66.1052 4.53191 65.9131 4.53191 65.7128V5.28723C4.53191 5.08691 4.61149 4.89479 4.75314 4.75314C4.89479 4.61149 5.08691 4.53191 5.28723 4.53191H59.6702C59.8705 4.53191 60.0627 4.61149 60.2043 4.75314C60.346 4.89479 60.4255 5.08691 60.4255 5.28723V17.5536C57.3104 15.8774 53.8146 15.0358 50.278 15.1107C46.7413 15.1855 43.2842 16.1743 40.2429 17.9809C37.2015 19.7875 34.6794 22.3503 32.9218 25.4202C31.1642 28.4901 30.231 31.9626 30.2128 35.5Z" fill="#545454"/>
</svg>
