<svg width="12" height="14" viewBox="0 0 12 14" fill="none" xmlns="http://www.w3.org/2000/svg">
<path d="M10.2424 1.75733C11.344 2.85872 11.974 4.34534 11.9992 5.90283C12.0245 7.46032 11.443 8.96659 10.3778 10.1031L10.2424 10.2431L7.41385 13.071C7.05494 13.4297 6.57312 13.6386 6.06598 13.6553C5.55885 13.672 5.06432 13.4953 4.68258 13.161L4.58659 13.071L1.75733 10.2424C0.632129 9.11725 0 7.59115 0 5.99988C0 4.40862 0.632129 2.88252 1.75733 1.75733C2.88252 0.632129 4.40862 0 5.99988 0C7.59115 0 9.11725 0.632129 10.2424 1.75733ZM5.99988 3.99994C5.73725 3.99994 5.47718 4.05167 5.23454 4.15217C4.99189 4.25268 4.77142 4.39999 4.58571 4.58571C4.39999 4.77142 4.25268 4.99189 4.15217 5.23454C4.05167 5.47718 3.99994 5.73725 3.99994 5.99988C3.99994 6.26252 4.05167 6.52259 4.15217 6.76523C4.25268 7.00788 4.39999 7.22835 4.58571 7.41406C4.77142 7.59977 4.99189 7.74709 5.23454 7.8476C5.47718 7.9481 5.73725 7.99983 5.99988 7.99983C6.5303 7.99983 7.039 7.78913 7.41406 7.41406C7.78913 7.039 7.99983 6.5303 7.99983 5.99988C7.99983 5.46946 7.78913 4.96077 7.41406 4.58571C7.039 4.21064 6.5303 3.99994 5.99988 3.99994Z" fill="#545454" fill-opacity="0.7"/>
</svg>
