<svg width="56" height="56" viewBox="0 0 56 56" fill="none" xmlns="http://www.w3.org/2000/svg">
<path fill-rule="evenodd" clip-rule="evenodd" d="M28 56C35.4261 56 42.548 53.05 47.799 47.799C53.05 42.548 56 35.4261 56 28C56 20.5739 53.05 13.452 47.799 8.20101C42.548 2.94999 35.4261 0 28 0C20.5739 0 13.452 2.94999 8.20101 8.20101C2.94999 13.452 0 20.5739 0 28C0 35.4261 2.94999 42.548 8.20101 47.799C13.452 53.05 20.5739 56 28 56ZM17.2445 17.465C16.247 18.9665 15.75 20.4505 15.75 21.91C15.75 22.6205 16.065 23.282 16.695 23.891C17.325 24.5 18.095 24.801 19.0085 24.801C20.559 24.801 21.6125 23.933 22.169 22.19C22.757 20.5275 23.4745 19.2675 24.325 18.41C25.1755 17.556 26.495 17.129 28.294 17.129C29.8305 17.129 31.0835 17.549 32.0565 18.3995C33.026 19.2465 33.5125 20.2895 33.5125 21.5215C33.5167 22.1396 33.3521 22.7471 33.0365 23.2785C32.7155 23.8203 32.3196 24.314 31.8605 24.745C31.1241 25.4184 30.3677 26.0697 29.5925 26.698C28.4025 27.685 27.454 28.5355 26.7505 29.253C26.0505 29.9705 25.4835 30.8035 25.06 31.7485C23.933 36.106 29.785 36.456 31.136 33.3445C31.3005 33.0435 31.549 32.7145 31.8815 32.3505C32.2175 31.99 32.662 31.57 33.2185 31.0905C34.6345 29.911 36.0278 28.7045 37.3975 27.4715C38.171 26.7575 38.8395 25.9035 39.403 24.9165C39.9839 23.8632 40.2761 22.6751 40.25 21.4725C40.25 19.81 39.7565 18.27 38.766 16.8525C37.779 15.4315 36.379 14.3115 34.566 13.4855C32.753 12.663 30.6635 12.25 28.294 12.25C25.746 12.25 23.5165 12.74 21.6055 13.7305C19.6945 14.7175 18.242 15.9635 17.2445 17.465ZM24.7345 42.245C24.7345 43.1733 25.1032 44.0635 25.7596 44.7199C26.416 45.3763 27.3062 45.745 28.2345 45.745C29.1628 45.745 30.053 45.3763 30.7094 44.7199C31.3658 44.0635 31.7345 43.1733 31.7345 42.245C31.7345 41.3167 31.3658 40.4265 30.7094 39.7701C30.053 39.1138 29.1628 38.745 28.2345 38.745C27.3062 38.745 26.416 39.1138 25.7596 39.7701C25.1032 40.4265 24.7345 41.3167 24.7345 42.245Z" fill="#545454"/>
</svg>
