<svg width="13" height="15" viewBox="0 0 13 15" fill="none" xmlns="http://www.w3.org/2000/svg">
<path d="M4.44734 6.49978C4.44734 7.04417 4.6636 7.56627 5.04854 7.95121C5.43348 8.33615 5.95558 8.55241 6.49997 8.55241C7.04436 8.55241 7.56645 8.33615 7.9514 7.95121C8.33634 7.56627 8.5526 7.04417 8.5526 6.49978C8.5526 5.95539 8.33634 5.4333 7.9514 5.04835C7.56645 4.66341 7.04436 4.44715 6.49997 4.44715C5.95558 4.44715 5.43348 4.66341 5.04854 5.04835C4.6636 5.4333 4.44734 5.95539 4.44734 6.49978Z" stroke="#545454" stroke-width="2" stroke-linecap="round" stroke-linejoin="round"/>
<path d="M10.3706 10.3704L7.46746 13.2735C7.21088 13.5298 6.86302 13.6738 6.50033 13.6738C6.13765 13.6738 5.78979 13.5298 5.5332 13.2735L2.62942 10.3704C1.86394 9.60484 1.34265 8.62953 1.13147 7.56775C0.920291 6.50597 1.0287 5.40541 1.443 4.40524C1.8573 3.40507 2.55888 2.55022 3.45901 1.94878C4.35915 1.34733 5.41741 1.02631 6.49999 1.02631C7.58257 1.02631 8.64084 1.34733 9.54097 1.94878C10.4411 2.55022 11.1427 3.40507 11.557 4.40524C11.9713 5.40541 12.0797 6.50597 11.8685 7.56775C11.6573 8.62953 11.136 9.60484 10.3706 10.3704Z" stroke="#545454" stroke-width="2" stroke-linecap="round" stroke-linejoin="round"/>
</svg>
