<svg width="16" height="16" viewBox="0 0 16 16" fill="none" xmlns="http://www.w3.org/2000/svg">
<path d="M8.6667 3.37997C9.83267 3.55082 10.8909 4.15634 11.6289 5.07501C12.367 5.99367 12.7303 7.15749 12.6459 8.33289C12.5616 9.50829 12.0357 10.6083 11.174 11.4121C10.3123 12.2159 9.17846 12.6641 8.00003 12.6666C7.06036 12.6667 6.14257 12.383 5.36676 11.8528C4.59096 11.3226 3.99329 10.5706 3.65197 9.69506C3.31065 8.81957 3.24157 7.86143 3.45379 6.94603C3.66601 6.03064 4.14963 5.20063 4.84137 4.56463L3.89804 3.6213C2.85807 4.59585 2.19898 5.90876 2.03877 7.32496C1.87857 8.74115 2.22771 10.1681 3.02369 11.3504C3.81967 12.5326 5.01049 13.3929 6.38293 13.7772C7.75537 14.1615 9.21978 14.0447 10.514 13.4477C11.8081 12.8507 12.8475 11.8125 13.446 10.5191C14.0446 9.22561 14.1631 7.76133 13.7804 6.38844C13.3978 5.01555 12.5389 3.8237 11.3576 3.02632C10.1763 2.22894 8.74975 1.87811 7.33337 2.03663V6.05663H8.6667V3.37997Z" fill="#545454"/>
<path d="M5.13806 5.80469C5.01308 5.92971 4.94287 6.09925 4.94287 6.27602C4.94287 6.4528 5.01308 6.62234 5.13806 6.74736L7.02406 8.63335C7.1498 8.75479 7.3182 8.82199 7.493 8.82047C7.66779 8.81895 7.835 8.74884 7.95861 8.62523C8.08221 8.50163 8.15233 8.33442 8.15384 8.15962C8.15536 7.98482 8.08817 7.81642 7.96673 7.69069L6.08006 5.80469C5.95504 5.67971 5.7855 5.6095 5.60873 5.6095C5.43195 5.6095 5.26308 5.67971 5.13806 5.80469Z" fill="#545454"/>
</svg>
