<svg width="83" height="84" viewBox="0 0 83 84" fill="none" xmlns="http://www.w3.org/2000/svg">
<path d="M71.7115 37.7502L57.5536 23.5923C48.8607 14.8993 36.9397 12.266 26.9159 18.4388L24.9904 16.5133C22.6402 14.1631 18.8176 14.1914 16.4674 16.5416C14.1172 18.8919 14.1455 22.6579 16.4957 25.0081L18.4212 26.9335C12.22 36.9857 14.8534 48.85 23.5747 57.5712L37.7326 71.7291L37.7042 79.0629C37.7042 82.6307 42.0082 84.4429 44.5283 81.9228L81.8202 44.6309C84.3404 42.1108 82.5565 37.7785 78.9887 37.7785L71.7115 37.7502ZM71.6832 71.7575C74.7979 68.6427 74.7979 63.5459 71.6832 60.4311L60.3569 71.7575C61.8588 73.2594 63.8959 74.1032 66.02 74.1032C68.1441 74.1032 70.1812 73.2594 71.6832 71.7575ZM8.00097 37.6369C8.11423 35.3717 6.30202 33.5028 4.03676 33.5028C2.99812 33.5054 2.00111 33.9114 1.25618 34.6352C0.511259 35.359 0.0766994 36.3439 0.0442308 37.3821C-0.391041 46.8289 2.39438 56.1436 7.94434 63.8007C9.41676 65.7828 12.305 66.0093 14.0606 64.2538C15.4197 62.8946 15.6179 60.7143 14.4853 59.1286C9.93834 52.9127 7.65064 45.3304 8.00097 37.6369ZM37.3928 0.0335373C35.2125 0.118484 33.4852 1.90238 33.4852 4.05438C33.4852 6.31964 35.354 8.07522 37.591 7.99028C45.0947 7.67881 52.7399 9.8308 59.0827 14.4746C60.64 15.6355 62.8204 15.4373 64.2078 14.0499C65.9351 12.3226 65.7369 9.40606 63.7265 7.96196C55.9396 2.32711 46.652 -0.33457 37.3928 0.0335373Z" fill="#545454"/>
</svg>
