<svg width="32" height="32" viewBox="0 0 32 32" fill="none" xmlns="http://www.w3.org/2000/svg">
<path d="M5.33334 24.0001C5.33334 22.5856 5.89525 21.229 6.89544 20.2288C7.89563 19.2287 9.25219 18.6667 10.6667 18.6667H21.3333C22.7478 18.6667 24.1044 19.2287 25.1046 20.2288C26.1048 21.229 26.6667 22.5856 26.6667 24.0001C26.6667 24.7073 26.3857 25.3856 25.8856 25.8857C25.3855 26.3858 24.7073 26.6667 24 26.6667H8.00001C7.29277 26.6667 6.61449 26.3858 6.11439 25.8857C5.61429 25.3856 5.33334 24.7073 5.33334 24.0001Z" stroke="#545454" stroke-width="2.5" stroke-linejoin="round"/>
<path d="M16 13.3334C18.2091 13.3334 20 11.5425 20 9.33337C20 7.12424 18.2091 5.33337 16 5.33337C13.7909 5.33337 12 7.12424 12 9.33337C12 11.5425 13.7909 13.3334 16 13.3334Z" stroke="#545454" stroke-width="2.5"/>
</svg>
