<svg width="16" height="16" viewBox="0 0 16 16" fill="none" xmlns="http://www.w3.org/2000/svg">
<path d="M8.62663 7.99997L12.3111 4.31553C12.3839 4.23051 12.4219 4.12114 12.4176 4.00928C12.4133 3.89743 12.3669 3.79132 12.2878 3.71217C12.2086 3.63302 12.1025 3.58664 11.9907 3.58232C11.8788 3.578 11.7694 3.61605 11.6844 3.68886L7.99996 7.37331L4.31552 3.68442C4.23183 3.60073 4.11832 3.55371 3.99996 3.55371C3.8816 3.55371 3.7681 3.60073 3.68441 3.68442C3.60071 3.76811 3.5537 3.88162 3.5537 3.99997C3.5537 4.11833 3.60071 4.23184 3.68441 4.31553L7.37329 7.99997L3.68441 11.6844C3.63788 11.7243 3.60009 11.7733 3.57342 11.8284C3.54674 11.8836 3.53175 11.9436 3.52938 12.0048C3.52702 12.066 3.53733 12.1271 3.55968 12.1841C3.58202 12.2412 3.61591 12.2929 3.65923 12.3363C3.70254 12.3796 3.75434 12.4135 3.81137 12.4358C3.86841 12.4582 3.92944 12.4685 3.99065 12.4661C4.05186 12.4637 4.11192 12.4488 4.16706 12.4221C4.2222 12.3954 4.27123 12.3576 4.31107 12.3111L7.99996 8.62664L11.6844 12.3111C11.7694 12.3839 11.8788 12.4219 11.9907 12.4176C12.1025 12.4133 12.2086 12.3669 12.2878 12.2878C12.3669 12.2086 12.4133 12.1025 12.4176 11.9907C12.4219 11.8788 12.3839 11.7694 12.3111 11.6844L8.62663 7.99997Z" fill="#545454"/>
</svg>
